<svg height="48pt" viewBox="-4 0 512 512" width="48pt" xmlns="http://www.w3.org/2000/svg"><path d="m468.609375 0h-433.898437c-19.167969 0-34.710938 15.542969-34.710938 34.710938v277.695312c0 19.171875 15.542969 34.710938 34.710938 34.710938h276.480468c23.015625-.003907 45.089844 9.144531 61.355469 25.429687l117.933594 128.257813c2.015625 2.296874 5.246093 3.101562 8.105469 2.019531 2.855468-1.078125 4.746093-3.820313 4.734374-6.878907v-461.234374c0-19.167969-15.539062-34.710938-34.710937-34.710938zm0 0" fill="#f29c1f"/><path d="m101.617188 471.039062c-1.285157-3.042968-3.140626-5.808593-5.464844-8.15625l-49.8125-49.8125-17.09375-17.179687c-5.847656-6.070313-15.195313-7.089844-22.21875-2.433594-4.007813 2.871094-6.550782 7.363281-6.9531252 12.277344-.3984378 4.914063 1.3828122 9.753906 4.8710932 13.238281l17.703126 17.789063 49.8125 49.898437c2.347656 2.300782 5.117187 4.125 8.15625 5.378906l26.296874 10.9375c1.585938.65625 3.414063.289063 4.628907-.925781 1.214843-1.214843 1.578125-3.042969.921875-4.628906zm0 0" fill="#f29c1f"/><path d="m503.320312 34.710938v461.234374c.011719 3.058594-1.878906 5.800782-4.734374 6.878907-2.859376 1.082031-6.089844.277343-8.105469-2.019531l-117.933594-128.257813c-16.265625-16.285156-38.339844-25.433594-61.355469-25.429687h-111.597656l138.847656-347.117188h130.167969c19.171875 0 34.710937 15.542969 34.710937 34.710938zm0 0" fill="#894b9d"/><path d="m338.441406 0-138.847656 347.117188h-164.882812c-19.167969 0-34.710938-15.539063-34.710938-34.710938v-277.695312c0-19.167969 15.542969-34.710938 34.710938-34.710938zm0 0" fill="#955ba5"/><g fill="#b49aca"><path d="m190.914062 277.695312c-3.691406 0-6.976562-2.335937-8.191406-5.824218l-61.230468-175.996094-61.242188 175.996094c-.960938 3.003906-3.476562 5.246094-6.566406 5.859375-3.09375.617187-6.273438-.492188-8.3125-2.894531-2.039063-2.402344-2.617188-5.722657-1.503906-8.675782l65.476562-188.058594c1.828125-5.140624 6.691406-8.570312 12.148438-8.570312 5.453124 0 10.320312 3.429688 12.148437 8.570312l65.441406 188.070313c.917969 2.648437.503907 5.574219-1.117187 7.863281-1.621094 2.285156-4.246094 3.648438-7.050782 3.660156zm0 0"/><path d="m167.78125 216.949219h-92.578125c-4.792969 0-8.679687-3.886719-8.679687-8.679688s3.886718-8.675781 8.679687-8.675781h92.578125c4.792969 0 8.675781 3.882812 8.675781 8.675781s-3.882812 8.679688-8.675781 8.679688zm0 0"/><path d="m428.394531 182.238281h-58.417969c-6.1875-.015625-12.011718-2.925781-15.734374-7.871093l-12.332032-16.429688c-3.941406-5.257812-4.578125-12.292969-1.636718-18.175781 2.941406-5.878907 8.949218-9.59375 15.523437-9.59375h86.78125c6.570313 0 12.582031 3.714843 15.523437 9.59375 2.9375 5.882812 2.304688 12.917969-1.640624 18.175781l-12.332032 16.4375c-3.71875 4.941406-9.546875 7.855469-15.734375 7.863281zm14.183594-34.765625-86.78125.054688 12.324219 16.433594c.433594.578124 1.113281.921874 1.839844.921874h58.417968c.71875 0 1.398438-.335937 1.832032-.914062zm0 0"/><path d="m399.1875 277.695312c-4.792969 0-8.679688-3.886718-8.679688-8.679687v-190.914063c0-4.792968 3.886719-8.679687 8.679688-8.679687s8.675781 3.886719 8.675781 8.679687v190.914063c0 4.792969-3.882812 8.679687-8.675781 8.679687zm0 0"/><path d="m329.761719 251.660156c-4.792969 0-8.675781-3.882812-8.675781-8.675781s3.882812-8.679687 8.675781-8.679687c29.742187 0 53.195312-31.621094 61.007812-62.855469 1.191407-4.617188 5.886719-7.40625 10.511719-6.246094 4.625 1.15625 7.449219 5.832031 6.324219 10.464844-9.148438 36.59375-37.414063 75.992187-77.84375 75.992187zm0 0"/><path d="m468.609375 251.660156c-40.429687 0-68.695313-39.398437-77.839844-75.992187-1.125-4.632813 1.699219-9.308594 6.324219-10.464844 4.625-1.160156 9.320312 1.628906 10.511719 6.246094 7.808593 31.242187 31.238281 62.855469 61.003906 62.855469 4.792969 0 8.679687 3.886718 8.679687 8.679687s-3.886718 8.675781-8.679687 8.675781zm0 0"/><path d="m425.21875 112.8125h-52.066406c-4.792969 0-8.679688-3.882812-8.679688-8.675781s3.886719-8.679688 8.679688-8.679688h52.066406c4.792969 0 8.679688 3.886719 8.679688 8.679688s-3.886719 8.675781-8.679688 8.675781zm0 0"/></g><path d="m46.339844 413.070312-23.691406 23.691407-17.703126-17.789063c-3.488281-3.484375-5.269531-8.324218-4.8710932-13.238281.4023432-4.914063 2.9453122-9.40625 6.9531252-12.277344 7.023437-4.65625 16.371094-3.636719 22.21875 2.433594zm0 0" fill="#fb7b76"/><path d="m106.914062 502.976562-26.296874-10.9375c-3.039063-1.253906-5.808594-3.078124-8.15625-5.378906l-49.8125-49.898437 23.691406-23.691407 49.8125 49.8125c2.324218 2.347657 4.179687 5.113282 5.464844 8.15625l10.847656 26.382813c.65625 1.585937.292968 3.414063-.921875 4.628906-1.214844 1.214844-3.042969 1.582031-4.628907.925781zm0 0" fill="#f29c1f"/><path d="m286.371094 512h-173.558594c-4.792969 0-8.675781-3.886719-8.675781-8.679688 0-4.789062 3.882812-8.675781 8.675781-8.675781h173.558594c4.792968 0 8.679687 3.886719 8.679687 8.675781 0 4.792969-3.886719 8.679688-8.679687 8.679688zm0 0" fill="#464f5d"/><path d="m225.628906 477.289062h-86.78125c-4.792968 0-8.679687-3.886718-8.679687-8.679687s3.886719-8.675781 8.679687-8.675781h86.78125c4.789063 0 8.675782 3.882812 8.675782 8.675781s-3.886719 8.679687-8.675782 8.679687zm0 0" fill="#464f5d"/><path d="m199.59375 442.578125h-86.78125c-4.792969 0-8.675781-3.886719-8.675781-8.679687 0-4.792969 3.882812-8.679688 8.675781-8.679688h86.78125c4.792969 0 8.675781 3.886719 8.675781 8.679688 0 4.792968-3.882812 8.679687-8.675781 8.679687zm0 0" fill="#464f5d"/></svg>
