<svg height="48pt" viewBox="0 0 512 512" width="48pt" xmlns="http://www.w3.org/2000/svg"><path d="m512 256c0 6.34375-.230469 12.632812-.691406 18.859375-.511719 7.054687-1.304688 14.023437-2.378906 20.898437-4.109376 26.351563-12.238282 51.378907-23.730469 74.417969-3.585938 7.15625-7.480469 14.136719-11.691407 20.898438-33.304687 53.507812-85.796874 93.832031-147.867187 111.332031-6.851563 1.945312-13.820313 3.597656-20.894531 4.945312-15.78125 3.058594-32.078125 4.648438-48.746094 4.648438-33.667969 0-65.816406-6.5-95.261719-18.316406-7.128906-2.851563-14.097656-6.03125-20.898437-9.488282-82.925782-42.308593-139.746094-128.480468-139.839844-227.945312v-.25c0-6.949219.28125-13.835938.824219-20.648438 2.082031-26.109374 8.078125-51.113281 17.410156-74.425781 2.851563-7.128906 6.019531-14.097656 9.476563-20.898437 42.308593-83.101563 128.648437-140.027344 228.289062-140.027344 141.386719 0 256 114.613281 256 256zm0 0" fill="#ffd073"/><g fill="#f76cae"><path d="m493.066406 198.132812c0 32.046876-26.058594 58.117188-58.105468 58.117188h-434.960938v-.25c0-6.949219.28125-13.835938.824219-20.648438h434.136719c20.519531 0 37.207031-16.695312 37.207031-37.21875 0-20.511718-16.6875-37.207031-37.207031-37.207031h-416.726563c2.851563-7.128906 6.019531-14.097656 9.476563-20.898437h407.25c32.046874 0 58.105468 26.070312 58.105468 58.105468zm0 0"/><path d="m160.738281 422.171875v71.511719c-7.128906-2.851563-14.097656-6.03125-20.898437-9.488282v-62.023437zm0 0"/><path d="m325.640625 422.171875v80.234375c-6.851563 1.945312-13.820313 3.597656-20.894531 4.945312v-85.179687zm0 0"/></g><path d="m180.089844 422.175781c-.285156 11.941407-7.585938 22.246094-17.933594 26.695313-3.46875 1.496094-7.28125 2.320312-11.285156 2.34375h-.582032c-15.945312-.066406-28.839843-13.082032-29.207031-29.039063-1.316406-56.695312-1.316406-113.402343 0-170.109375.367188-15.945312 13.261719-28.976562 29.207031-29.039062h.582032c4.003906.023437 7.816406.847656 11.285156 2.339844 10.347656 4.453124 17.648438 14.753906 17.933594 26.699218 1.304687 56.707032 1.304687 113.414063 0 170.109375zm0 0" fill="#d8d4ce"/><path d="m180.089844 422.175781c-.285156 11.941407-7.585938 22.246094-17.933594 26.695313-10.351562-4.4375-17.65625-14.742188-17.929688-26.695313-1.304687-56.695312-1.304687-113.402343 0-170.109375.273438-11.945312 7.578126-22.257812 17.929688-26.699218 10.347656 4.453124 17.648438 14.753906 17.933594 26.699218 1.304687 56.707032 1.304687 113.414063 0 170.109375zm0 0" fill="#f2efea"/><path d="m150.582031 265.054688c-51.921875 0-94.164062-42.242188-94.164062-94.164063 0-51.917969 42.242187-94.160156 94.164062-94.160156s94.164063 42.242187 94.164063 94.160156c0 51.921875-42.242188 94.164063-94.164063 94.164063zm0 0" fill="#d8d4ce"/><path d="m265.644531 115.0625c0 63.546875-51.515625 115.0625-115.0625 115.0625s-115.0625-51.515625-115.0625-115.0625 51.515625-115.0625 115.0625-115.0625 115.0625 51.515625 115.0625 115.0625zm0 0" fill="#151a1c"/><path d="m150.582031 209.226562c-51.921875 0-94.164062-42.242187-94.164062-94.164062s42.242187-94.164062 94.164062-94.164062 94.164063 42.242187 94.164063 94.164062-42.242188 94.164062-94.164063 94.164062zm0 0" fill="#2f373b"/><path d="m59.800781 332.96875c0 20.511719 16.695313 37.207031 37.207031 37.207031h388.191407c-3.585938 7.15625-7.480469 14.136719-11.691407 20.898438h-376.5c-32.035156 0-58.105468-26.070313-58.105468-58.105469 0-32.046875 26.070312-58.109375 58.105468-58.109375h414.300782c-.511719 7.054687-1.304688 14.023437-2.378906 20.898437h-411.921876c-20.511718 0-37.207031 16.6875-37.207031 37.210938zm0 0" fill="#f76cae"/><path d="m344.695312 422.175781c-.28125 11.941407-7.585937 22.246094-17.929687 26.695313-3.46875 1.496094-7.28125 2.320312-11.285156 2.34375h-.585938c-15.945312-.066406-28.839843-13.082032-29.203125-29.039063-1.316406-56.695312-1.316406-146.238281 0-202.945312.363282-15.945313 13.257813 3.859375 29.203125 3.796875h.585938c4.003906.023437 7.816406.847656 11.285156 2.339844 10.34375 4.453124 17.648437 14.753906 17.929687 26.699218 1.308594 56.707032 1.308594 113.414063 0 170.109375zm0 0" fill="#d8d4ce"/><path d="m344.695312 422.175781c-.28125 11.941407-7.585937 22.246094-17.929687 26.695313-10.355469-4.4375-17.660156-14.742188-17.929687-26.695313-1.308594-56.695312-1.308594-113.402343 0-170.109375.269531-11.945312 7.574218-22.257812 17.929687-26.699218 10.34375 4.453124 17.648437 14.753906 17.929687 26.699218 1.308594 56.707032 1.308594 113.414063 0 170.109375zm0 0" fill="#f2efea"/><path d="m441.300781 40.851562v148.417969c0 18.011719-11.648437 33.300781-27.835937 38.742188-4.085938 1.371093-8.460938 2.113281-13.019532 2.113281-22.558593 0-40.84375-18.289062-40.84375-40.855469v-148.417969c0-11.277343 4.578126-21.496093 11.964844-28.882812 7.386719-7.386719 17.605469-11.96484375 28.878906-11.96484375 4.558594 0 8.933594.74218775 13.019532 2.12109375 16.1875 5.433594 27.835937 20.722656 27.835937 38.726562zm0 0" fill="#151a1c"/><path d="m441.300781 40.851562v148.417969c0 18.011719-11.648437 33.300781-27.835937 38.742188-16.171875-5.441407-27.835938-20.730469-27.835938-38.742188v-148.417969c0-11.277343 4.578125-21.496093 11.964844-28.882812 4.410156-4.410156 9.832031-7.816406 15.871094-9.84375 16.1875 5.433594 27.835937 20.722656 27.835937 38.726562zm0 0" fill="#2f373b"/><path d="m359.601562 40.851562v161.8125c0 26.445313-21.441406 47.886719-47.886718 47.886719h-25.964844l-1.046875-141.257812c0-37.796875 30.648437-68.441407 68.441406-68.441407zm0 0" fill="#d8d4ce"/><path d="m359.601562 43.160156v189.835938c0 9.695312-7.859374 17.554687-17.554687 17.554687h-33.207031v-141.257812c0-31.683594 21.527344-58.339844 50.761718-66.132813zm0 0" fill="#f2efea"/><path d="m268.582031 274.859375h115.742188v20.898437h-115.742188zm0 0" fill="#f76cae"/></svg>
