<?xml version="1.0" encoding="iso-8859-1"?>
<!-- Generator: Adobe Illustrator 19.0.0, SVG Export Plug-In . SVG Version: 6.00 Build 0)  -->
<svg height="48pt" width="48pt" version="1.1" id="Capa_1" xmlns="http://www.w3.org/2000/svg" xmlns:xlink="http://www.w3.org/1999/xlink" x="0px" y="0px"
	 viewBox="0 0 512 512" style="enable-background:new 0 0 512 512;" xml:space="preserve">
<circle style="fill:#405BE9;" cx="256" cy="256" r="256"/>
<path style="fill:#052AE3;" d="M512,256c0-19.537-2.198-38.559-6.344-56.842l-81.492-81.492H87.835v258.417
	c0,7.588,3.394,14.38,8.745,18.949l113.187,112.794C224.764,510.561,240.214,512,256,512C397.385,512,512,397.385,512,256z"/>
<rect x="87.83" y="117.67" style="fill:#FFF5CA;" width="336.33" height="41.848"/>
<rect x="256" y="117.67" style="fill:#FFE767;" width="168.16" height="41.84"/>
<path style="fill:#FFFFFF;" d="M399.248,401H112.752c-13.761,0-24.917-11.156-24.917-24.917V147.53h336.33v228.553
	C424.165,389.844,413.009,401,399.248,401z"/>
<path style="fill:#FFF5CA;" d="M424.16,147.53v228.55c0,13.76-11.15,24.92-24.91,24.92H256V147.53H424.16z"/>
<g>
	<path style="fill:#FF3100;" d="M128.794,195.088v20.301h-8.2v-35.503h6.4l16.551,20.852v-20.852h8.201v35.503h-6.601
		L128.794,195.088z"/>
	<path style="fill:#FF3100;" d="M183.498,208.189v7.2h-24.952v-35.503h24.502v7.201h-16.301v6.901h14.001v6.65h-14.001v7.551
		L183.498,208.189L183.498,208.189z"/>
	<path style="fill:#FF3100;" d="M200.299,179.937h7.551l3.6,11.351l3.6-11.351h7.601l-5.951,16.501l3.6,9.551l8.901-26.102h8.951
		l-14.201,35.503h-6.85l-5.651-13.901l-5.6,13.901h-6.901l-14.151-35.503h8.9l8.951,26.102l3.5-9.551L200.299,179.937z"/>
	<path style="fill:#FF3100;" d="M261.703,190.288c-0.1-0.133-0.45-0.383-1.05-0.75c-0.6-0.366-1.35-0.75-2.25-1.15
		s-1.884-0.75-2.95-1.05c-1.067-0.3-2.133-0.45-3.2-0.45c-2.934,0-4.4,0.984-4.4,2.951c0,0.6,0.158,1.1,0.475,1.5
		s0.783,0.759,1.4,1.075c0.617,0.317,1.391,0.609,2.325,0.875c0.933,0.267,2.016,0.567,3.25,0.9c1.7,0.467,3.234,0.975,4.601,1.525
		c1.367,0.55,2.525,1.234,3.475,2.05c0.95,0.817,1.683,1.809,2.201,2.975c0.516,1.167,0.774,2.567,0.774,4.2
		c0,2-0.375,3.693-1.125,5.075c-0.75,1.384-1.742,2.5-2.975,3.35c-1.234,0.85-2.65,1.467-4.25,1.85
		c-1.6,0.383-3.25,0.575-4.95,0.575c-1.3,0-2.634-0.1-4.001-0.3s-2.7-0.491-4-0.875c-1.3-0.383-2.559-0.842-3.775-1.375
		c-1.217-0.533-2.342-1.15-3.375-1.85l3.6-7.15c0.133,0.167,0.566,0.484,1.3,0.95c0.733,0.467,1.641,0.934,2.725,1.4
		c1.082,0.467,2.291,0.884,3.625,1.25c1.334,0.367,2.683,0.55,4.05,0.55c2.901,0,4.35-0.883,4.35-2.65
		c0-0.666-0.217-1.217-0.65-1.65c-0.433-0.433-1.033-0.825-1.8-1.175s-1.675-0.675-2.725-0.975s-2.193-0.633-3.426-1
		c-1.633-0.5-3.05-1.041-4.25-1.625c-1.2-0.583-2.192-1.258-2.975-2.025c-0.784-0.766-1.368-1.65-1.75-2.65
		c-0.384-1-0.575-2.167-0.575-3.5c0-1.866,0.35-3.516,1.05-4.95c0.7-1.433,1.65-2.642,2.85-3.625c1.2-0.983,2.592-1.725,4.175-2.225
		c1.583-0.5,3.258-0.75,5.026-0.75c1.233,0,2.45,0.117,3.65,0.35c1.2,0.234,2.35,0.534,3.451,0.9c1.1,0.367,2.125,0.784,3.075,1.25
		c0.95,0.467,1.825,0.934,2.625,1.4L261.703,190.288z"/>
</g>
<rect x="120.59" y="230.67" style="fill:#00E8F2;" width="145.76" height="26"/>
<rect x="256" y="230.67" style="fill:#00B8C0;" width="10.35" height="26"/>
<rect x="120.59" y="280.26" style="fill:#FFDC00;" width="145.76" height="13.557"/>
<rect x="256" y="280.27" style="fill:#FFAA20;" width="10.35" height="13.55"/>
<rect x="120.59" y="316.1" style="fill:#FFDC00;" width="145.76" height="13.557"/>
<rect x="256" y="316.1" style="fill:#FFAA20;" width="10.35" height="13.56"/>
<rect x="120.59" y="351.93" style="fill:#FFDC00;" width="145.76" height="13.557"/>
<rect x="256" y="351.93" style="fill:#FFAA20;" width="10.35" height="13.56"/>
<g>
	<rect x="288.59" y="208.64" style="fill:#FF8A00;" width="102.81" height="13.557"/>
	<rect x="288.59" y="244.47" style="fill:#FF8A00;" width="102.81" height="13.557"/>
</g>
<rect x="288.59" y="280.31" style="fill:#BB1000;" width="102.81" height="13.557"/>
<rect x="288.59" y="172.78" style="fill:#FF8A00;" width="102.81" height="13.557"/>
<g>
	<rect x="288.59" y="316.1" style="fill:#BB1000;" width="102.81" height="13.557"/>
	<rect x="288.59" y="351.93" style="fill:#BB1000;" width="102.81" height="13.557"/>
</g>
<path style="fill:#FF3100;" d="M265.58,200.74c-0.52-1.17-1.25-2.16-2.2-2.98c-0.95-0.81-2.11-1.5-3.48-2.05
	c-1.17-0.47-2.48-0.91-3.9-1.32v9c0.36,0.22,0.66,0.46,0.9,0.7c0.44,0.43,0.65,0.98,0.65,1.65c0,1.06-0.52,1.8-1.55,2.21v7.64
	c0.68-0.09,1.34-0.22,2-0.38c1.6-0.38,3.02-1,4.25-1.85c1.24-0.85,2.23-1.96,2.98-3.35c0.75-1.38,1.12-3.07,1.12-5.07
	C266.35,203.31,266.1,201.91,265.58,200.74z M260.65,189.54c0.6,0.36,0.95,0.61,1.05,0.75l3.6-6.8c-0.8-0.47-1.67-0.94-2.62-1.4
	c-0.95-0.47-1.98-0.89-3.08-1.25c-1.1-0.37-2.25-0.67-3.45-0.9c-0.05-0.01-0.1-0.02-0.15-0.03v7.59c0.86,0.26,1.66,0.56,2.4,0.89
	C259.3,188.79,260.05,189.17,260.65,189.54z"/>
<g>
</g>
<g>
</g>
<g>
</g>
<g>
</g>
<g>
</g>
<g>
</g>
<g>
</g>
<g>
</g>
<g>
</g>
<g>
</g>
<g>
</g>
<g>
</g>
<g>
</g>
<g>
</g>
<g>
</g>
</svg>
