<svg height="48pt" viewBox="0 0 512 512" width="48pt" xmlns="http://www.w3.org/2000/svg"><path d="m90 437 166 45 166-45v-377l-166-30-166 30zm0 0" fill="#00e5ee"/><path d="m256 482 166-45v-377l-166-30zm0 0" fill="#00cef5"/><path d="m90 437h332v75h-332zm0 0" fill="#e1e1e6"/><path d="m256 437h166v75h-166zm0 0" fill="#d2d2d7"/><path d="m90 0h332v60h-332zm0 0" fill="#e1e1e6"/><path d="m256 0h166v60h-166zm0 0" fill="#d2d2d7"/><path d="m211 457h90v30h-90zm0 0" fill="#f4f5f7"/><path d="m256 457h45v30h-45zm0 0" fill="#e1e1e6"/><path d="m0 135h512v242h-512zm0 0" fill="#ff6426"/><path d="m256 135h256v242h-256zm0 0" fill="#e91d81"/><path d="m512 392h-512v-30h512zm0 0" fill="#ffe277"/><path d="m512 150h-512v-30h512zm0 0" fill="#ffe277"/><path d="m512 150h-256v-30h256zm0 0" fill="#ffcb00"/><path d="m512 392h-256v-30h256zm0 0" fill="#ffcb00"/><path d="m112 330h-30l-30-72v72h-30v-150h30l30 72v-72h30zm0 0" fill="#f4f5f7"/><path d="m222 210v-30h-80v150h80v-30h-50v-30h50v-30h-50v-30zm0 0" fill="#f4f5f7"/><g fill="#e1e1e6"><path d="m366.585938 331h-26.757813l-16.320313-36.253906-15.777343 36.253906h-26.808594l-24.921875-142.414062 29.550781-5.171876 15.398438 87.988282 22.09375-50.765625 23.070312 51.246093 14.871094-88.371093 29.582031 4.976562zm0 0"/><path d="m457.773438 331c-24.8125 0-45-20.1875-45-45h30c0 8.269531 6.730468 15 15 15 8.273437 0 15-6.730469 15-15s-6.726563-15-15-15c-24.8125 0-45-20.1875-45-45s20.1875-45 45-45c24.816406 0 45 20.1875 45 45h-30c0-8.269531-6.726563-15-15-15-8.269532 0-15 6.730469-15 15s6.730468 15 15 15c24.816406 0 45 20.1875 45 45s-20.183594 45-45 45zm0 0"/></g></svg>
